<svg id="ghost-logo" xmlns="http://www.w3.org/2000/svg" viewBox="0 0 1000 1000" width="1000" height="1000" style="background-color:#081921">
    <style>@font-face{font-family:'Concert One';src:url('../fonts/ConcertOne-Regular.ttf') format('truetype')}</style>
    <defs id="dynamic-definitions">
        <filter id="g-lmtot4gbx8 --filter-list" x="-10%" y="-10%" width="130%" height="140%" filterUnits="objectBoundingBox">
            <feGaussianBlur id="g-lmtot4gbx8 --filter-list-blur-0" stdDeviation="3,3" result="result"></feGaussianBlur>
        </filter>
        <filter id="g-u46ixgfdg9q--filter-list" x="-10%" y="-10%" width="130%" height="130%" filterUnits="objectBoundingBox">
            <feGaussianBlur id="g-u46ixgfdg9q--filter-list-blur-0" stdDeviation="1,1" result="result"></feGaussianBlur>
        </filter>
    </defs>
    <g id="g-lmtot4gbx8" transform-origin="500 935.55" filter="url(#g-lmtot4gbx8 --filter-list)">
        <ellipse id="ellipse-fq6oe177ase" transform-origin="0 0" rx="192.5" ry="44" transform="matrix(1 0 0 1 500 935.55)" fill="#223543" stroke="none" stroke-width="0"></ellipse>
        <ellipse id="ellipse-6h7jlgft9m4" transform-origin="0 0" rx="118.5" ry="26" transform="matrix(1 0 0 1 500 935.55)" fill="#384A59" stroke="none" stroke-width="0"></ellipse>
        <ellipse id="ellipse-09n0x5k7j5k8" transform-origin="0 0" rx="64.5" ry="12" transform="matrix(1 0 0 1 500 935.55)" fill="#42586C" stroke="none" stroke-width="0"></ellipse>
        <animateTransform attributeName="transform" type="scale" values="1 1;0.9 0.9;1 1" keyTimes="0;0.5;1" calcMode="spline" keySplines="0.42 0 0.58 1;0.42 0 0.58 1" dur="6" additive="sum" repeatCount="indefinite"/>
        <animate attributeName="opacity" values="1;0.75;1" keyTimes="0;0.5;1" calcMode="spline" keySplines="0.42 0 0.58 1;0.42 0 0.58 1" dur="6" repeatCount="indefinite"/>
    </g>
    <g id="g-u46ixgfdg9q" transform-origin="503.54 478.2" transform="matrix(1 0 0 1 0.000001 0)" filter="url(#g-u46ixgfdg9q--filter-list)">
        <g id="g-0v39emf7lio" transform-origin="503.9 478.51" transform="matrix(1 0 0 1 0 0.000001)">
            <path id="path-p9odjajuitf" transform-origin="511.65 477.24" d="M209.930004,406.928461C189.761536,188.634475,276.349155,37.55485,459.069878,29.659509C651.263493,21.354845,752.105825,145.924782,752.105825,335.74564C752.105825,414.082687,763.098971,531.180256,796.001897,621.663305C798.981853,629.813814,800.937659,646.676827,800.747418,665.559378C766.499998,665.559378,742.499998,682.549999,731.937357,720.132875C692.499998,709.549999,651.263493,737.549999,651.263493,772.33361C616.499998,772.33361,592.499998,793.549999,587.198954,825.720725C548.499998,815.549999,516.499998,833.549999,506.52509,869.616798C465.499998,863.549999,432.499998,883.549999,422.292085,927.749435C231.284848,838.770909,238.40313,588.444654,209.930004,406.928461Z" transform="matrix(1 0 0 1 0.000002 0.000001)" fill="#E6EBED" stroke="none" stroke-width="2"></path>
            <path id="path-nhifg6i30gb" transform-origin="511.65 477.24" d="M799.872397,642.548595C800.751645,649.91907,800.747418,658.154011,800.747418,665.559378C766.499998,665.559378,742.499998,682.549999,731.937357,720.132875C692.499998,709.549999,651.263493,737.549999,651.263493,772.33361C616.499998,772.33361,592.499998,793.549999,587.198954,825.720725C548.499998,815.549999,516.499998,833.549999,506.52509,869.616798C465.499998,863.549999,432.499998,883.549999,422.292085,927.749435C416.675987,925.13324,411.231171,922.377559,405.951695,919.488242C396.499998,855.549999,447.499998,825.720725,491.499998,845.549999C501.7652,804.353444,529.861454,781.125202,564.499998,793.549999C571.274761,754.680404,599.039891,731.672911,637.499998,741.549999C644.29804,705.42765,672.114425,679.767312,715.499998,687.549999C723.401501,649.960815,755.40452,628.944856,799.872397,642.548595Z" transform="matrix(1 0 0 1 0.000002 0.000001)" fill="#9FB3C5" stroke="none" stroke-width="2"></path>
            <g id="g-2gx2er8tz0v" transform-origin="391 318.84" transform="matrix(1 0 0 1 -11.448394 35.565566)">
                <ellipse id="ellipse-gfnrhufhw96" transform-origin="0 0" rx="26.5" ry="26.5" transform="matrix(1 0 0 1 298.5 268.55)" fill="#081921" stroke="none" stroke-width="0"></ellipse>
                <ellipse id="ellipse-pfx2bjjlk5" transform-origin="0 0" rx="26.5" ry="26.5" transform="matrix(1 0 0 1 483.5 270.55)" fill="#081921" stroke="none" stroke-width="0"></ellipse>
                <animateTransform attributeName="transform" type="translate" values="0 0;0.14 -0.54;0 -0.81;-0.27 -1.09;-0.41 -1.22;-0.54 -1.22;-0.81 -1.09;-1.08 -0.81;-1.35 -0.54;-1.35 -0.41;-1.35 -0.14;-1.35 0.13;-1.35 0.41;-1.08 0.41;-0.68 0.68;-0.54 0.41;35.16 -1.83;35.3 -1.69;35.16 -1.42;34.89 -1.28;34.62 -1.28;34.35 -1.42;34.08 -1.69;33.94 -1.96;33.94 -2.1;34.08 -2.23;34.21 -2.23;34.35 -2.37;34.62 -2.1;34.62 -1.83;34.62 -1.55;34.35 -1.55;34.08 -1.55;33.81 -1.69;33.67 -1.69;33.4 -1.83;33.27 -2.1;33.27 -2.37;33.13 -2.91;32.99 -3.18;0 0;-0.27 -0.14;-0.37 -0.39;-0.31 -0.73;0.03 -0.72;0.29 -0.54;0.46 -0.5;0.7 0.02;0 0" keyTimes="0;0.02;0.03;0.05;0.07;0.08;0.1;0.12;0.13;0.15;0.17;0.18;0.2;0.22;0.23;0.25;0.37;0.38;0.4;0.42;0.43;0.45;0.47;0.48;0.5;0.52;0.53;0.55;0.57;0.58;0.6;0.62;0.63;0.65;0.67;0.68;0.7;0.72;0.73;0.75;0.87;0.88;0.9;0.92;0.93;0.95;0.97;0.98;1" calcMode="spline" keySplines="0 0 1 1;0 0 1 1;0 0 1 1;0 0 1 1;0 0 1 1;0 0 1 1;0 0 1 1;0 0 1 1;0 0 1 1;0 0 1 1;0 0 1 1;0 0 1 1;0 0 1 1;0 0 1 1;0 0 1 1;0 0 0.58 1;0 0 1 1;0 0 1 1;0 0 1 1;0 0 1 1;0 0 1 1;0 0 1 1;0 0 1 1;0 0 1 1;0 0 1 1;0 0 1 1;0 0 1 1;0 0 1 1;0 0 1 1;0 0 1 1;0 0 1 1;0 0 1 1;0 0 1 1;0 0 1 1;0 0 1 1;0 0 1 1;0 0 1 1;0 0 1 1;0 0 1 1;0 0 0.58 1;0 0 1 1;0 0 1 1;0 0 1 1;0 0 1 1;0 0 1 1;0 0 1 1;0 0 1 1;0 0 1 1" dur="6" additive="sum" repeatCount="indefinite"/>
            </g>
            <ellipse id="ellipse-b0weu2yp0aa" transform-origin="0.11 0" rx="46.56988" ry="28" transform="matrix(0.998239 -0.059318 0.059318 0.998239 395.853962 390.54215)" fill="#081921" stroke="none" stroke-width="0">
                <animate attributeName="rx" values="46.56988;46.56988;28.534999;28.534999;46.57;46.57" keyTimes="0;0.27;0.3;0.43;0.45;1" dur="6" repeatCount="indefinite"/>
                <animate attributeName="ry" values="28;28;28;28;28;28" keyTimes="0;0.27;0.3;0.43;0.45;1" dur="6" repeatCount="indefinite"/>
            </ellipse>
            <animateTransform attributeName="transform" type="translate" values="0 0;5 0;0 0;-5 0;0 0;5 0;0 0;-5 0;0 0" keyTimes="0;0.13;0.25;0.38;0.5;0.63;0.75;0.88;1" dur="6" additive="sum" repeatCount="indefinite"/>
        </g>
        <animateTransform attributeName="transform" type="translate" values="0 0;0 -16.5;0 -33;0 -16.5;0 0" keyTimes="0;0.25;0.5;0.75;1" calcMode="spline" keySplines="0.42 0 0.58 1;0.42 0 0.58 1;0.42 0 0.58 1;0.42 0 0.58 1" dur="6" additive="sum" repeatCount="indefinite"/>
    </g>
    <g id="g-rzx333yeojq" transform-origin="88.43 455.81" transform="matrix(1 0 0 1 191.959614 -36.680986)">
        <text id="text-ghp036jynbo" transform-origin="0 0" font-family="Concert One" font-size="50" letter-spacing="0" transform="matrix(1.201176 0 0 1 80 452.857557)" opacity="0" fill="#000" stroke="none" stroke-width="0">
            <animateTransform attributeName="transform" type="translate" values="0 0;0 0;0 -410;0 -410" keyTimes="0;0.3;0.41;1" calcMode="spline" keySplines="0 0 1 1;0.42 0 1 1;0 0 1 1" dur="6" additive="sum" repeatCount="indefinite"/>
            <animate attributeName="opacity" values="0;0;1;0.5;0.5" keyTimes="0;0.3;0.3;0.41;1" dur="6" repeatCount="indefinite"/>
            <tspan id="tspan-4usqpr2hfk5" x="0" y="0" font-family="Concert One" font-size="110" letter-spacing="0" transform="matrix(1 0 0 1 9.636134 339.817)" fill="#E6EBED" stroke="#081921" stroke-width="3">B</tspan>
        </text>
        <text id="text-m1xv98vu0ml" transform-origin="0 0" font-family="Concert One" font-size="50" letter-spacing="0" transform="matrix(1.201176 0 0 1 160 452.86)" opacity="0" fill="#000" stroke="none" stroke-width="0">
            <animateTransform attributeName="transform" type="translate" values="0 0;0 0;0 -410;0 -410" keyTimes="0;0.32;0.43;1" calcMode="spline" keySplines="0 0 1 1;0.42 0 1 1;0 0 1 1" dur="6" additive="sum" repeatCount="indefinite"/>
            <animate attributeName="opacity" values="0;0;1;0.5;0.5" keyTimes="0;0.32;0.32;0.43;1" dur="6" repeatCount="indefinite"/>
            <tspan id="tspan-9qdx79v3kut" x="0" y="0" font-family="Concert One" font-size="110" letter-spacing="0" transform="matrix(1 0 0 1 9.636134 339.817)" fill="#E6EBED" stroke="#081921" stroke-width="3">O</tspan>
        </text>
        <text id="text-d05iro0yc5a" transform-origin="0 0" font-family="Concert One" font-size="50" letter-spacing="0" transform="matrix(1.201176 0 0 1 240 452.86)" opacity="0" fill="#000" stroke="none" stroke-width="0">
            <animateTransform attributeName="transform" type="translate" values="0 0;0 0;0 -410;0 -410" keyTimes="0;0.35;0.46;1" calcMode="spline" keySplines="0 0 1 1;0.42 0 1 1;0 0 1 1" dur="6" additive="sum" repeatCount="indefinite"/>
            <animate attributeName="opacity" values="0;0;1;0.5;0.5" keyTimes="0;0.35;0.35;0.46;1" dur="6" repeatCount="indefinite"/>
            <tspan id="tspan-4zof16vit4l" x="0" y="0" font-family="Concert One" font-size="110" letter-spacing="0" transform="matrix(1 0 0 1 9.636134 339.817)" fill="#E6EBED" stroke="#081921" stroke-width="3">O</tspan>
        </text>
        <text id="text-1zch1a1x77f" transform-origin="0 0" font-family="Concert One" font-size="50" letter-spacing="0" transform="matrix(1.201176 0 0 1 320 452.86)" opacity="0" fill="#000" stroke="none" stroke-width="0">
            <animateTransform attributeName="transform" type="translate" values="0 0;0 0;0 -410;0 -410" keyTimes="0;0.38;0.49;1" calcMode="spline" keySplines="0 0 1 1;0.42 0 1 1;0 0 1 1" dur="6" additive="sum" repeatCount="indefinite"/>
            <animate attributeName="opacity" values="0;0;1;0.5;0.5" keyTimes="0;0.37;0.38;0.49;1" dur="6" repeatCount="indefinite"/>
            <tspan id="tspan-tv66nb6gby" x="0" y="0" font-family="Concert One" font-size="110" letter-spacing="0" transform="matrix(1 0 0 1 9.636134 339.817)" fill="#E6EBED" stroke="#081921" stroke-width="3">O</tspan>
        </text>
        <text id="text-ht65lvdxtzj" transform-origin="0 0" font-family="Concert One" font-size="50" letter-spacing="0" transform="matrix(1.201176 0 0 1 400 452.86)" opacity="0" fill="#000" stroke="none" stroke-width="0">
            <animateTransform attributeName="transform" type="translate" values="0 0;0 0;0 -410;0 -410" keyTimes="0;0.4;0.52;1" calcMode="spline" keySplines="0 0 1 1;0.42 0 1 1;0 0 1 1" dur="6" additive="sum" repeatCount="indefinite"/>
            <animate attributeName="opacity" values="0;0;1;0.5;0.5" keyTimes="0;0.4;0.4;0.52;1" dur="6" repeatCount="indefinite"/>
            <tspan id="tspan-gy4r6i4p1ig" x="0" y="0" font-family="Concert One" font-size="110" letter-spacing="0" transform="matrix(1 0 0 1 9.636134 339.817)" fill="#E6EBED" stroke="#081921" stroke-width="3">O</tspan>
        </text>
        <text id="text-0dkpb20xh3k" transform-origin="0 0" font-family="Concert One" font-size="50" letter-spacing="0" transform="matrix(1.201176 0 0 1 480 452.86)" opacity="0" fill="#000" stroke="none" stroke-width="0">
            <animateTransform attributeName="transform" type="translate" values="0 0;0 0;0 -410;0 -410" keyTimes="0;0.43;0.54;1" calcMode="spline" keySplines="0 0 1 1;0.42 0 1 1;0 0 1 1" dur="6" additive="sum" repeatCount="indefinite"/>
            <animate attributeName="opacity" values="0;0;1;0.5;0.5" keyTimes="0;0.43;0.43;0.54;1" dur="6" repeatCount="indefinite"/>
            <tspan id="tspan-pxnstf63vx9" x="0" y="0" font-family="Concert One" font-size="110" letter-spacing="0" transform="matrix(1 0 0 1 9.636134 339.817)" fill="#E6EBED" stroke="#081921" stroke-width="3">O</tspan>
        </text>
        <text id="text-vhg98m1odxh" transform-origin="0 0" font-family="Concert One" font-size="50" letter-spacing="0" transform="matrix(1.201176 0 0 1 560 452.86)" opacity="0" fill="#000" stroke="none" stroke-width="0">
            <animateTransform attributeName="transform" type="translate" values="0 0;0 0;0 -410;0 -410" keyTimes="0;0.45;0.57;1" calcMode="spline" keySplines="0 0 1 1;0.42 0 1 1;0 0 1 1" dur="6" additive="sum" repeatCount="indefinite"/>
            <animate attributeName="opacity" values="0;0;1;0.5;0.5" keyTimes="0;0.45;0.45;0.57;1" dur="6" repeatCount="indefinite"/>
            <tspan id="tspan-xo6g20qzwtb" x="0" y="0" font-family="Concert One" font-size="110" letter-spacing="0" transform="matrix(1 0 0 1 9.636134 339.817)" fill="#E6EBED" stroke="#081921" stroke-width="3">!</tspan>
        </text>
        <animateTransform attributeName="transform" type="translate" values="0 0;0 0;-792 -25;-792 -25" keyTimes="0;0.3;0.57;1" dur="6" additive="sum" repeatCount="indefinite"/>
    </g>
</svg>