<?xml-stylesheet type="text/css" href="../css/rad.css" ?>
<svg class="goal" xmlns="http://www.w3.org/2000/svg" viewBox="-0.5 0 10 10.5">
  <g transform="scale(0.8)translate(0.8 1.5)rotate(10 5 5)">
    <path d="M1 1Q3 1.5 5 1 7 0.5 9 1V9Q7 8.5 5 9 3 9.5 1 9V15Z" style="fill:none;stroke-linejoin:square;stroke-width:0.5"/>
    <path d="M5 5V3Q6 2.75 7 2.75V0.75Q8 0.75 9 1V3Q8 2.75 7 2.75V4.75Q8 4.75 9 5V7Q8 6.75 7 6.75V8.75Q6 8.75 5 9V7Q6 6.75 7 6.75V4.75Q6 4.75 5 5V7Q4 7.25 3 7.25V9.25Q2 9.25 1 9V7Q2 7.25 3 7.25V5.25Q2 5.25 1 5V3Q2 3.25 3 3.25V1.25Q4 1.25 5 1V5 3Q4 3.25 3 3.25V5.25Q4 5.25 5 5Z" stroke="none"/>
  </g>
</svg>
