<?xml version="1.0" standalone="no"?>
<!DOCTYPE svg PUBLIC "-//W3C//DTD SVG 20010904//EN"
 "http://www.w3.org/TR/2001/REC-SVG-20010904/DTD/svg10.dtd">
<svg version="1.0" xmlns="http://www.w3.org/2000/svg"
 width="700.000000pt" height="700.000000pt" viewBox="0 0 700.000000 700.000000"
 preserveAspectRatio="xMidYMid meet">
<metadata>
Created by potrace 1.14, written by Peter Selinger 2001-2017
</metadata>
<g transform="translate(0.000000,700.000000) scale(0.100000,-0.100000)"
fill="#000000" stroke="none">
<path d="M4226 6063 c-1 -1 -33 -3 -72 -4 -77 -2 -205 -20 -275 -39 -24 -7
-45 -12 -46 -11 -11 3 -102 -34 -208 -84 -282 -133 -522 -375 -645 -650 -17
-38 -35 -77 -39 -85 -35 -67 -79 -269 -87 -399 l-7 -97 949 0 c873 -1 954 -2
1009 -18 168 -49 295 -165 356 -326 40 -107 42 -243 5 -345 -48 -129 -139
-230 -285 -315 -94 -55 -184 -136 -237 -214 -70 -102 -111 -237 -113 -372 -3
-149 16 -209 178 -559 16 -33 48 -104 71 -158 l44 -99 65 7 c36 3 75 8 86 11
11 2 31 6 45 8 69 11 244 60 315 88 373 145 684 390 905 713 105 152 206 374
255 559 30 112 29 107 44 206 31 201 31 388 0 585 -103 671 -568 1238 -1211
1479 -97 36 -258 80 -333 91 -23 3 -52 8 -65 10 -55 11 -694 28 -704 18z"/>
<path d="M953 6039 c-170 -43 -314 -147 -406 -291 -35 -54 -82 -164 -90 -208
-3 -14 -8 -43 -13 -65 -9 -50 -10 -2702 0 -2805 4 -41 11 -100 16 -130 5 -30
12 -68 14 -85 33 -193 148 -473 272 -661 283 -430 746 -738 1239 -825 28 -4
61 -10 75 -13 75 -15 336 -21 430 -11 104 11 140 17 235 36 552 113 1036 490
1293 1004 84 168 160 410 178 564 3 31 9 65 11 76 3 11 7 415 8 898 l2 877
-56 0 c-302 3 -1304 1 -1307 -2 -2 -2 -4 -379 -6 -838 l-3 -835 -24 -64 c-63
-171 -213 -306 -379 -340 -277 -58 -538 100 -618 374 -16 56 -17 155 -19 1415
-1 928 -5 1371 -13 1405 -46 214 -194 398 -392 487 -129 59 -305 73 -447 37z"/>
<path d="M6130 2549 c-253 -229 -582 -404 -914 -489 -61 -15 -129 -31 -151
-34 -75 -12 -99 -17 -103 -21 -4 -4 71 -174 149 -343 22 -46 39 -85 39 -87 0
-7 47 -110 105 -230 107 -222 282 -356 520 -400 122 -22 283 6 415 72 226 114
371 348 371 601 0 121 -20 204 -82 339 -41 89 -201 447 -246 548 -19 44 -38
83 -42 87 -3 3 -31 -16 -61 -43z"/>
</g>
</svg>
