<svg xmlns="http://www.w3.org/2000/svg">
  <symbol id="profile" viewBox="0 0 6 6">
    <path d="M 0 6 A 3 2 0 1 1 6 6 Z" stroke="transparent"/>
    <circle cx="3" cy="2.25" r="1.75" stroke="transparent"/>
  </symbol>
  <symbol id="links" viewBox="0 0 13 11">
    <rect x="1" y="4" rx="1" ry="1" width="11" height="3" fill="transparent" stroke-width="1"/>
    <rect x="5" y="0" width="3" height="11" fill="#171c26" stroke-width="0"/>
    <line x1="5" x2="8" y1="4" y2="7" stroke-width="1" stroke-linecap="round"/>
    <line x1="6" x2="7" y1="6" y2="5" stroke-width="3" stroke="#171c26"/>
    <line x1="5" x2="8" y1="7" y2="4" stroke-width="1" stroke-linecap="round"/>
    <polygon points="7 6 7 7.2 8.2 6" stroke-width="0"/>
    <polygon points="6 5 6 3.8 4.8 5" stroke-width="0"/>
  </symbol>
  <symbol id="download" viewBox="0 0 6 4">
    <path d="M 1 3.5 Q 3 4.5 5 3.5" fill="transparent" stroke-linecap="round" stroke-width="0.3"/>
    <line x1="1.2" x2="3" y1="2.7" y2="3.5" stroke-width="0.3" stroke-linecap="round"/>
    <line x1="3" x2="4.8" y1="3.5" y2="2.7" stroke-width="0.3" stroke-linecap="round"/>
    <line x1="3" x2="3" y1="0" y2="3.4" stroke-width="0.3" stroke-linecap="round"/>
  </symbol>
  <symbol id="home" viewBox="0 0 2 2">
    <polygon points="1 0.2 1.7 0.8 1.5 0.8 1.5 1.6 0.5 1.6 0.5 0.8 0.3 0.8" stroke="transparent"/>
    <line x1="1.35" x2="1.35" y1="0.35" y2="0.8" stroke-width="0.15"/>
  </symbol>
  <symbol id="wip" viewBox="-1 -1 11.5 11.5">
    <path d="M 4 3 Q 4.2 2 3.6 1.4 Q 3 0.8 2 1 L 3 2 L 3 3 L 2 3 L 1 2 Q 0.8 3 1.4 3.6 Q 2 4.2 3 4 L 7 8 Q 7.5 8.5 8 8 Q 8.5 7.5 8 7 Z" stroke-width="0.2" stroke-linecap="round" stroke-linejoin="round"/>
    <path d="M 6.5 2.5 L 1.5 7.5 L 2 8 L 7 3 L 8 4 L 8.5 3.5 L 7 2 L 5.5 1.5 Z" stroke-width="0.2" stroke-linejoin="round"/>
  </symbol>
  <symbol id="idea" viewBox="0 0 10 9">
    <path d="M 4 7 Q 3.8 5.8 3 5 A 2.828 2.828 0 1 1 7 5 Q 6.2 5.8 6 7 Z" stroke-linejoin="round" stroke-width="0.5" fill="transparent"/>
    <path d="M 4 8 A 1 1 0 1 0 6 8 Z" stroke-linejoin="round" stroke-width="0.5" fill="transparent"/>
  </symbol>
  <symbol id="goal" viewBox="-0.5 0 10 10.5">
    <path d="M 1 1 Q 3 1.5 5 1 Q 7 0.5 9 1 V 9 Q 7 8.5 5 9 Q 3 9.5 1 9 V 15 Z" transform="scale(0.8) translate(0.8 1.5) rotate(10 5 5)" stroke-linejoin="square" stroke-width="0.5" fill="transparent"/>
    <path d="M 5 5 V 3 Q 6 2.75 7 2.75 V 0.75 Q 8 0.75 9 1 V 3 Q 8 2.75 7 2.75 V 4.75 Q 8 4.75 9 5 V 7 Q 8 6.75 7 6.75 V 8.75 Q 6 8.75 5 9 V 7 Q 6 6.75 7 6.75 V 4.75 Q 6 4.75 5 5 V 7 Q 4 7.25 3 7.25 V 9.25 Q 2 9.25 1 9 V 7 Q 2 7.25 3 7.25 V 5.25 Q 2 5.25 1 5 V 3 Q 2 3.25 3 3.25 V 1.25 Q 4 1.25 5 1 V 5 3 Q 4 3.25 3 3.25 V 5.25 Q 4 5.25 5 5 Z" transform="scale(0.8) translate(0.8 1.5) rotate(10 5 5)" stroke-linejoin="square" stroke-width="0"/>
  </symbol>
</svg>
